<svg width="12" height="12" viewBox="0 0 12 12" fill="none" xmlns="http://www.w3.org/2000/svg">
<path d="M11.0355 0H0.9645C0.432 0 0 0.432 0 0.9645V11.0355C0 11.568 0.432 12 0.9645 12H11.0355C11.568 12 12 11.568 12 11.0355V0.9645C12 0.432 11.568 0 11.0355 0ZM11.0355 11.04C4.3185 11.0385 0.96 11.037 0.96 11.0355C0.9615 4.3185 0.963 0.96 0.9645 0.96C7.6815 0.9615 11.04 0.963 11.04 0.9645C11.0385 7.6815 11.037 11.04 11.0355 11.04ZM1.779 4.4985H3.5595V10.2255H1.779V4.4985ZM2.67 3.7155C3.2385 3.7155 3.702 3.2535 3.702 2.6835C3.702 2.54798 3.67531 2.41378 3.62344 2.28857C3.57158 2.16336 3.49556 2.0496 3.39973 1.95377C3.3039 1.85794 3.19014 1.78192 3.06493 1.73006C2.93972 1.67819 2.80552 1.6515 2.67 1.6515C2.53448 1.6515 2.40028 1.67819 2.27507 1.73006C2.14986 1.78192 2.0361 1.85794 1.94027 1.95377C1.84444 2.0496 1.76842 2.16336 1.71656 2.28857C1.66469 2.41378 1.638 2.54798 1.638 2.6835C1.6365 3.2535 2.0985 3.7155 2.67 3.7155ZM6.4545 7.392C6.4545 6.645 6.597 5.922 7.5225 5.922C8.4345 5.922 8.448 6.7755 8.448 7.44V10.2255H10.227V7.0845C10.227 5.5425 9.894 4.356 8.0925 4.356C7.227 4.356 6.6465 4.8315 6.408 5.2815H6.384V4.4985H4.6755V10.2255H6.4545V7.392Z" fill="#5D79AC"/>
</svg>
