<?xml version="1.0" standalone="no"?>
<!DOCTYPE svg PUBLIC "-//W3C//DTD SVG 20010904//EN"
 "http://www.w3.org/TR/2001/REC-SVG-20010904/DTD/svg10.dtd">
<svg version="1.0" xmlns="http://www.w3.org/2000/svg"
 width="153.000000pt" height="153.000000pt" viewBox="0 0 153.000000 153.000000"
 preserveAspectRatio="xMidYMid meet">

<g transform="translate(0.000000,153.000000) scale(0.100000,-0.100000)"
fill="#6bbcce" stroke="none">
<path d="M550 1474 c-214 -19 -293 -47 -374 -134 -99 -106 -120 -210 -120
-580 0 -358 21 -463 116 -566 83 -91 147 -116 340 -135 139 -13 513 -7 618 11
179 30 299 150 333 332 7 39 11 177 11 368 0 249 -3 319 -17 379 -40 175 -158
284 -337 310 -76 12 -488 22 -570 15z m385 -94 c239 -15 293 -32 367 -120 49
-57 65 -120 79 -305 17 -250 -2 -549 -42 -632 -29 -60 -110 -129 -171 -148
-88 -26 -387 -39 -583 -26 -206 14 -256 27 -319 82 -84 74 -101 127 -116 361
-11 190 1 481 25 564 19 65 49 110 103 151 60 46 126 62 288 72 201 12 195 12
369 1z"/>
<path d="M351 1227 c-7 -9 -11 -104 -11 -283 l-1 -270 -35 -13 c-46 -17 -64
-55 -64 -136 0 -82 18 -119 65 -136 32 -12 35 -17 35 -51 0 -32 4 -39 27 -44
37 -10 57 7 61 50 2 23 8 36 17 36 8 0 29 13 47 29 32 29 33 31 33 116 0 85
-1 87 -33 116 -18 16 -39 29 -47 29 -13 0 -15 38 -15 273 0 199 -3 276 -12
285 -16 16 -53 15 -67 -1z m79 -702 l0 -45 -48 0 -47 0 3 45 4 45 44 0 44 0 0
-45z"/>
<path d="M732 1228 c-7 -7 -12 -43 -12 -94 l0 -81 -30 -6 c-46 -10 -70 -57
-70 -137 0 -80 14 -110 63 -133 l37 -19 0 -222 c0 -233 2 -246 45 -246 43 0
45 13 45 247 l0 223 25 6 c14 3 36 20 50 36 22 25 25 39 25 101 0 87 -23 134
-70 144 l-30 6 0 81 c0 86 -8 106 -45 106 -12 0 -26 -5 -33 -12z m78 -318 l0
-50 -45 0 -45 0 0 50 0 50 45 0 45 0 0 -50z"/>
<path d="M1110 1221 c-6 -12 -10 -99 -10 -213 l0 -194 -36 -13 c-48 -18 -67
-63 -61 -148 5 -73 26 -111 67 -120 l30 -5 0 -107 c0 -113 6 -131 46 -131 45
0 54 23 54 136 0 92 2 104 18 104 48 1 72 49 72 145 0 71 -2 79 -29 106 -16
16 -37 29 -45 29 -14 0 -16 24 -16 198 0 180 -2 200 -18 215 -25 23 -59 21
-72 -2z m88 -553 l3 -48 -50 0 -51 0 0 51 0 50 48 -3 47 -3 3 -47z"/>
</g>
</svg>
