<?xml version="1.0" standalone="no"?>
<!DOCTYPE svg PUBLIC "-//W3C//DTD SVG 20010904//EN"
 "http://www.w3.org/TR/2001/REC-SVG-20010904/DTD/svg10.dtd">
<svg version="1.0"
    xmlns="http://www.w3.org/2000/svg" width="174.000000pt" height="174.000000pt" viewBox="0 0 174.000000 174.000000" preserveAspectRatio="xMidYMid meet">

    <g transform="translate(0.000000,174.000000) scale(0.100000,-0.100000)" fill="#d1d4d5" stroke="none">
        <path d="M758 1530 c-64 -16 -158 -69 -203 -114 -126 -126 -167 -326 -101
-486 13 -30 109 -199 214 -375 106 -176 194 -324 196 -330 2 -5 6 -8 8 -5 9 9
385 645 405 686 88 175 32 416 -125 539 -80 63 -148 87 -262 91 -52 2 -112 -1
-132 -6z m216 -201 c43 -29 86 -108 86 -158 -1 -81 -63 -160 -142 -182 -143
-38 -276 108 -224 244 17 46 52 84 101 111 44 24 133 17 179 -15z"/>
        <path d="M813 1301 c-53 -25 -83 -71 -83 -129 0 -110 110 -175 210 -124 89 45
96 180 12 240 -43 31 -90 35 -139 13z"/>
    </g>
</svg>
