<?xml version="1.0" standalone="no"?>
<!DOCTYPE svg PUBLIC "-//W3C//DTD SVG 20010904//EN"
 "http://www.w3.org/TR/2001/REC-SVG-20010904/DTD/svg10.dtd">
<svg version="1.0" xmlns="http://www.w3.org/2000/svg"
 width="157.000000pt" height="157.000000pt" viewBox="0 0 157.000000 157.000000"
 preserveAspectRatio="xMidYMid meet">

<g transform="translate(0.000000,157.000000) scale(0.100000,-0.100000)"
fill="#6bbcce" stroke="none">
<path d="M633 1554 c-433 -95 -707 -512 -614 -935 84 -377 425 -637 806 -616
121 7 194 25 300 76 194 92 353 277 410 476 9 33 21 68 26 77 11 21 12 308 1
308 -4 0 -13 23 -20 52 -51 214 -246 433 -464 521 -137 54 -311 71 -445 41z
m300 -100 c318 -72 537 -345 537 -669 0 -381 -304 -685 -685 -685 -263 0 -506
152 -616 385 -51 107 -72 215 -66 330 10 179 69 317 191 443 168 175 407 248
639 196z"/>
<path d="M672 1279 c-32 -12 -72 -40 -101 -69 -117 -117 -121 -293 -10 -414
l47 -52 -44 -23 c-101 -54 -196 -196 -210 -313 l-7 -58 47 0 c46 0 46 0 46 35
0 97 90 224 195 275 43 21 64 25 150 25 123 0 171 -19 250 -99 57 -59 95 -139
95 -201 0 -35 0 -35 45 -35 44 0 45 1 45 33 0 50 -28 136 -61 189 -36 56 -116
132 -163 155 l-35 16 49 54 c107 117 107 284 1 406 -77 87 -226 121 -339 76z
m217 -92 c24 -12 57 -41 74 -65 42 -58 50 -157 18 -219 -37 -74 -119 -123
-202 -123 -42 0 -126 39 -156 71 -94 103 -55 288 74 345 48 21 144 17 192 -9z"/>
</g>
</svg>
