<?xml version="1.0" standalone="no"?>
<!DOCTYPE svg PUBLIC "-//W3C//DTD SVG 20010904//EN"
 "http://www.w3.org/TR/2001/REC-SVG-20010904/DTD/svg10.dtd">
<svg version="1.0" xmlns="http://www.w3.org/2000/svg"
 width="169.000000pt" height="166.000000pt" viewBox="0 0 169.000000 166.000000"
 preserveAspectRatio="xMidYMid meet">

<g transform="translate(0.000000,166.000000) scale(0.100000,-0.100000)"
fill="#2ccf54" stroke="none">
<path d="M300 1649 c-68 -11 -185 -69 -184 -92 1 -8 -4 -13 -11 -11 -15 6 -57
-57 -81 -122 -17 -45 -19 -93 -21 -569 -3 -560 0 -601 50 -689 30 -54 115
-121 179 -143 47 -15 109 -18 558 -21 316 -2 534 1 583 7 90 12 172 44 161 62
-5 8 -3 9 5 4 29 -17 113 99 136 189 12 47 15 150 15 573 0 501 -1 519 -21
577 -48 137 -130 205 -278 232 -88 16 -997 18 -1091 3z m709 -234 c142 -34
289 -139 368 -263 60 -94 85 -182 86 -302 1 -117 -14 -183 -65 -284 -40 -79
-162 -201 -245 -244 -163 -85 -364 -94 -531 -22 l-47 20 -155 -39 c-85 -22
-156 -38 -159 -35 -2 2 14 71 37 153 l42 149 -24 48 c-76 153 -72 345 11 513
67 136 213 256 369 300 85 24 224 27 313 6z m-665 -223 c3 -5 -1 -9 -9 -9 -8
0 -12 4 -9 9 3 4 7 8 9 8 2 0 6 -4 9 -8z"/>
<path d="M740 1312 c-102 -29 -181 -76 -240 -142 -142 -158 -169 -364 -74
-552 29 -58 29 -67 3 -152 -12 -37 -19 -70 -15 -73 3 -3 44 4 91 17 l85 23 68
-31 c283 -131 621 34 688 336 29 131 4 266 -69 369 -44 64 -118 133 -169 159
-113 58 -259 77 -368 46z m-43 -200 c6 -4 25 -38 42 -75 32 -71 31 -98 -3
-126 -28 -23 -18 -48 42 -109 53 -56 124 -102 155 -102 7 0 29 16 47 35 39 41
47 40 135 -1 49 -23 55 -30 55 -56 0 -43 -28 -84 -71 -104 -73 -33 -216 -1
-303 67 -14 11 -31 17 -38 13 -7 -4 -9 -3 -5 1 10 11 -113 136 -126 128 -6 -3
-7 -1 -3 5 3 6 -8 33 -25 61 -55 88 -50 193 12 246 30 25 63 32 86 17z"/>
</g>
</svg>
